<mxfile host="app.diagrams.net" modified="2023-12-28T16:24:49.858Z" agent="Mozilla/5.0 (Windows NT 10.0; Win64; x64) AppleWebKit/537.36 (KHTML, like Gecko) Chrome/120.0.0.0 Safari/537.36" etag="87p92bEO9HbF83B4SLZu" version="22.1.15" type="device">
  <diagram name="Page-1" id="JJVUcCQD57FH4aN_aUr7">
    <mxGraphModel dx="1050" dy="565" grid="1" gridSize="10" guides="1" tooltips="1" connect="1" arrows="1" fold="1" page="1" pageScale="1" pageWidth="850" pageHeight="1100" math="0" shadow="0">
      <root>
        <mxCell id="0" />
        <mxCell id="1" parent="0" />
        <mxCell id="V2ffqWZEAV6mvgmx5QuN-19" value="" style="edgeStyle=orthogonalEdgeStyle;rounded=0;orthogonalLoop=1;jettySize=auto;html=1;" parent="1" source="V2ffqWZEAV6mvgmx5QuN-1" target="V2ffqWZEAV6mvgmx5QuN-11" edge="1">
          <mxGeometry relative="1" as="geometry" />
        </mxCell>
        <mxCell id="V2ffqWZEAV6mvgmx5QuN-1" value="Form submition&lt;br&gt;(post, store)" style="rounded=0;whiteSpace=wrap;html=1;" parent="1" vertex="1">
          <mxGeometry x="340" y="180" width="120" height="40" as="geometry" />
        </mxCell>
        <mxCell id="V2ffqWZEAV6mvgmx5QuN-2" value="Request to server&lt;br&gt;(get, create)" style="rounded=0;whiteSpace=wrap;html=1;" parent="1" vertex="1">
          <mxGeometry x="340" y="50" width="120" height="40" as="geometry" />
        </mxCell>
        <mxCell id="V2ffqWZEAV6mvgmx5QuN-3" value="Server response&lt;br&gt;(form)" style="rounded=0;whiteSpace=wrap;html=1;" parent="1" vertex="1">
          <mxGeometry x="340" y="110" width="120" height="40" as="geometry" />
        </mxCell>
        <mxCell id="V2ffqWZEAV6mvgmx5QuN-5" value="" style="endArrow=classic;html=1;rounded=0;entryX=0.5;entryY=0;entryDx=0;entryDy=0;" parent="1" source="V2ffqWZEAV6mvgmx5QuN-2" target="V2ffqWZEAV6mvgmx5QuN-3" edge="1">
          <mxGeometry width="50" height="50" relative="1" as="geometry">
            <mxPoint x="397.5" y="280" as="sourcePoint" />
            <mxPoint x="402.5" y="350" as="targetPoint" />
          </mxGeometry>
        </mxCell>
        <mxCell id="V2ffqWZEAV6mvgmx5QuN-6" value="" style="endArrow=classic;html=1;rounded=0;entryX=0.5;entryY=0;entryDx=0;entryDy=0;exitX=0.5;exitY=1;exitDx=0;exitDy=0;" parent="1" source="V2ffqWZEAV6mvgmx5QuN-3" target="V2ffqWZEAV6mvgmx5QuN-1" edge="1">
          <mxGeometry width="50" height="50" relative="1" as="geometry">
            <mxPoint x="375" y="450" as="sourcePoint" />
            <mxPoint x="425" y="400" as="targetPoint" />
          </mxGeometry>
        </mxCell>
        <mxCell id="V2ffqWZEAV6mvgmx5QuN-7" value="Auth in API" style="whiteSpace=wrap;html=1;" parent="1" vertex="1">
          <mxGeometry x="340" y="250" width="120" height="40" as="geometry" />
        </mxCell>
        <mxCell id="V2ffqWZEAV6mvgmx5QuN-9" value="" style="shape=curlyBracket;whiteSpace=wrap;html=1;rounded=1;labelPosition=left;verticalLabelPosition=middle;align=right;verticalAlign=middle;" parent="1" vertex="1">
          <mxGeometry x="290" y="70" width="50" height="130" as="geometry" />
        </mxCell>
        <mxCell id="V2ffqWZEAV6mvgmx5QuN-10" value="FRONT" style="text;html=1;align=center;verticalAlign=middle;resizable=0;points=[];autosize=1;strokeColor=none;fillColor=none;" parent="1" vertex="1">
          <mxGeometry x="230" y="120" width="60" height="30" as="geometry" />
        </mxCell>
        <mxCell id="V2ffqWZEAV6mvgmx5QuN-20" style="edgeStyle=orthogonalEdgeStyle;rounded=0;orthogonalLoop=1;jettySize=auto;html=1;exitX=0.5;exitY=1;exitDx=0;exitDy=0;entryX=0.5;entryY=0;entryDx=0;entryDy=0;" parent="1" source="V2ffqWZEAV6mvgmx5QuN-11" target="V2ffqWZEAV6mvgmx5QuN-12" edge="1">
          <mxGeometry relative="1" as="geometry" />
        </mxCell>
        <mxCell id="V2ffqWZEAV6mvgmx5QuN-11" value="Create the contact" style="whiteSpace=wrap;html=1;" parent="1" vertex="1">
          <mxGeometry x="340" y="310" width="120" height="40" as="geometry" />
        </mxCell>
        <mxCell id="V2ffqWZEAV6mvgmx5QuN-21" style="edgeStyle=orthogonalEdgeStyle;rounded=0;orthogonalLoop=1;jettySize=auto;html=1;exitX=0.5;exitY=1;exitDx=0;exitDy=0;entryX=0.5;entryY=0;entryDx=0;entryDy=0;" parent="1" source="V2ffqWZEAV6mvgmx5QuN-12" target="V2ffqWZEAV6mvgmx5QuN-13" edge="1">
          <mxGeometry relative="1" as="geometry" />
        </mxCell>
        <mxCell id="V2ffqWZEAV6mvgmx5QuN-12" value="Create the lead" style="whiteSpace=wrap;html=1;" parent="1" vertex="1">
          <mxGeometry x="340" y="370" width="120" height="30" as="geometry" />
        </mxCell>
        <mxCell id="V2ffqWZEAV6mvgmx5QuN-22" style="edgeStyle=orthogonalEdgeStyle;rounded=0;orthogonalLoop=1;jettySize=auto;html=1;exitX=0.5;exitY=1;exitDx=0;exitDy=0;entryX=0.5;entryY=0;entryDx=0;entryDy=0;" parent="1" source="V2ffqWZEAV6mvgmx5QuN-13" target="V2ffqWZEAV6mvgmx5QuN-14" edge="1">
          <mxGeometry relative="1" as="geometry" />
        </mxCell>
        <mxCell id="V2ffqWZEAV6mvgmx5QuN-13" value="Link the contact and the lead" style="whiteSpace=wrap;html=1;" parent="1" vertex="1">
          <mxGeometry x="310" y="420" width="180" height="40" as="geometry" />
        </mxCell>
        <mxCell id="V2ffqWZEAV6mvgmx5QuN-23" style="edgeStyle=orthogonalEdgeStyle;rounded=0;orthogonalLoop=1;jettySize=auto;html=1;exitX=0.5;exitY=1;exitDx=0;exitDy=0;entryX=0.5;entryY=0;entryDx=0;entryDy=0;" parent="1" source="V2ffqWZEAV6mvgmx5QuN-14" target="V2ffqWZEAV6mvgmx5QuN-15" edge="1">
          <mxGeometry relative="1" as="geometry" />
        </mxCell>
        <mxCell id="V2ffqWZEAV6mvgmx5QuN-14" value="Assign an responsiable user&lt;br&gt;(reandomly)" style="whiteSpace=wrap;html=1;" parent="1" vertex="1">
          <mxGeometry x="340" y="480" width="120" height="60" as="geometry" />
        </mxCell>
        <mxCell id="V2ffqWZEAV6mvgmx5QuN-24" style="edgeStyle=orthogonalEdgeStyle;rounded=0;orthogonalLoop=1;jettySize=auto;html=1;exitX=0.5;exitY=1;exitDx=0;exitDy=0;entryX=0.5;entryY=0;entryDx=0;entryDy=0;" parent="1" source="V2ffqWZEAV6mvgmx5QuN-15" target="V2ffqWZEAV6mvgmx5QuN-16" edge="1">
          <mxGeometry relative="1" as="geometry" />
        </mxCell>
        <mxCell id="V2ffqWZEAV6mvgmx5QuN-15" value="Create two products" style="whiteSpace=wrap;html=1;" parent="1" vertex="1">
          <mxGeometry x="340" y="560" width="120" height="40" as="geometry" />
        </mxCell>
        <mxCell id="V2ffqWZEAV6mvgmx5QuN-25" style="edgeStyle=orthogonalEdgeStyle;rounded=0;orthogonalLoop=1;jettySize=auto;html=1;exitX=0.5;exitY=1;exitDx=0;exitDy=0;entryX=0.5;entryY=0;entryDx=0;entryDy=0;" parent="1" source="V2ffqWZEAV6mvgmx5QuN-16" target="V2ffqWZEAV6mvgmx5QuN-18" edge="1">
          <mxGeometry relative="1" as="geometry" />
        </mxCell>
        <mxCell id="V2ffqWZEAV6mvgmx5QuN-16" value="Link the products to the lead" style="whiteSpace=wrap;html=1;" parent="1" vertex="1">
          <mxGeometry x="340" y="620" width="120" height="40" as="geometry" />
        </mxCell>
        <mxCell id="V2ffqWZEAV6mvgmx5QuN-18" value="If the contact already exists, create customer and link them" style="whiteSpace=wrap;html=1;" parent="1" vertex="1">
          <mxGeometry x="300" y="680" width="200" height="50" as="geometry" />
        </mxCell>
        <mxCell id="V2ffqWZEAV6mvgmx5QuN-26" value="" style="shape=curlyBracket;whiteSpace=wrap;html=1;rounded=1;labelPosition=left;verticalLabelPosition=middle;align=right;verticalAlign=middle;size=0.5;" parent="1" vertex="1">
          <mxGeometry x="220" y="270" width="80" height="440" as="geometry" />
        </mxCell>
        <mxCell id="V2ffqWZEAV6mvgmx5QuN-29" value="" style="endArrow=none;html=1;rounded=0;" parent="1" edge="1">
          <mxGeometry width="50" height="50" relative="1" as="geometry">
            <mxPoint x="280" y="270" as="sourcePoint" />
            <mxPoint x="340" y="270" as="targetPoint" />
          </mxGeometry>
        </mxCell>
        <mxCell id="V2ffqWZEAV6mvgmx5QuN-30" value="Backend" style="text;html=1;align=center;verticalAlign=middle;resizable=0;points=[];autosize=1;strokeColor=none;fillColor=none;" parent="1" vertex="1">
          <mxGeometry x="155" y="475" width="70" height="30" as="geometry" />
        </mxCell>
      </root>
    </mxGraphModel>
  </diagram>
</mxfile>
